<?xml version="1.0" standalone="no"?><!DOCTYPE svg PUBLIC "-//W3C//DTD SVG 1.1//EN" "http://www.w3.org/Graphics/SVG/1.1/DTD/svg11.dtd"><svg t="1625564599732" class="icon" viewBox="0 0 1024 1024" version="1.1" xmlns="http://www.w3.org/2000/svg" p-id="82749" width="22" height="22" xmlns:xlink="http://www.w3.org/1999/xlink"><defs><style type="text/css"></style></defs><path d="M348.4 263.6h227.8c7.2 0 12.4 7 10.2 13.9l-60.1 190.6c-2.6 8.3 5.3 16.2 13.6 13.4l126.6-42.1c9.1-3 17.3 6.6 12.9 15.1L523 753.2c-5.2 9.9-20.2 6.2-20.2-5V590.8c0-8.1-8.7-13.3-15.8-9.4l-65.9 35.9c-6.3 3.5-14.2-0.2-15.6-7.3L338 276.4c-1.4-6.6 3.6-12.8 10.4-12.8z" fill="#CE2C1B" p-id="82750"></path><path d="M509.2 959.2c-60.5 0-119.1-11.8-174.4-35.2-53.4-22.6-101.3-54.9-142.4-96s-73.4-89-96-142.4C73 630.4 61.2 571.7 61.2 511.2S73 392.1 96.4 336.8c22.6-53.4 54.9-101.3 96-142.4s89-73.4 142.4-96C390 75.1 448.7 63.2 509.2 63.2S628.3 75 683.6 98.4c53.4 22.6 101.3 54.9 142.4 96 41.1 41.1 73.4 89 96 142.4 23.4 55.3 35.2 113.9 35.2 174.4S945.4 630.3 922 685.6C899.4 739 867.1 786.9 826 828c-41.1 41.1-89 73.4-142.4 96-55.3 23.4-114 35.2-174.4 35.2z m0-836c-213.9 0-388 174.1-388 388s174.1 388 388 388 388-174.1 388-388-174.1-388-388-388z" fill="#06a5f8" p-id="82751" data-spm-anchor-id="a313x.7781069.0.i76" class="selected"></path></svg>